<svg xmlns="http://www.w3.org/2000/svg" viewBox="18 18 1292 437" width="1292" height="437" fill="none" role="img" aria-label="ewo"><title>ewo</title><path d="M218.50,412.95C215.75,412.51 210.00,411.67 205.72,411.09C201.45,410.52 197.09,409.58 196.04,409.02C194.99,408.46 192.86,407.98 191.32,407.96C189.77,407.95 187.38,407.29 186.00,406.50C184.62,405.71 182.38,405.04 181.00,405.00C179.62,404.97 177.63,404.28 176.56,403.47C175.49,402.66 173.84,402.00 172.89,402.00C171.94,402.00 169.89,401.35 168.33,400.55C166.77,399.75 164.82,398.86 164.00,398.56C163.18,398.26 161.71,397.56 160.75,397.01C159.79,396.45 158.21,395.55 157.25,394.99C156.29,394.44 154.82,393.73 154.00,393.42C153.18,393.11 151.82,392.44 151.00,391.93C150.18,391.41 148.60,390.54 147.50,389.98C146.40,389.43 144.15,388.08 142.50,387.00C140.85,385.92 138.49,384.58 137.25,384.04C136.01,383.50 135.00,382.59 135.00,382.02C135.00,381.46 134.55,381.00 134.01,381.00C130.03,381.00 104.96,356.88 93.89,342.40C85.22,331.07 72.05,308.03 71.97,304.07C71.95,303.20 71.28,301.63 70.47,300.56C69.66,299.49 69.00,297.66 69.00,296.50C69.00,295.34 68.34,293.51 67.53,292.44C66.72,291.37 66.05,289.64 66.03,288.59C66.01,287.54 65.37,284.39 64.59,281.59C60.34,266.19 59.98,262.83 59.98,238.00C59.97,213.22 60.70,206.22 64.55,193.87C65.35,191.32 66.00,188.52 66.00,187.65C66.00,186.78 66.63,184.59 67.40,182.78C68.17,180.98 69.56,177.47 70.49,175.00C72.49,169.69 74.88,164.10 76.06,162.00C76.52,161.18 77.91,158.48 79.15,156.02C80.39,153.56 83.34,148.72 85.70,145.26C88.07,141.81 90.00,138.71 90.00,138.38C90.00,136.88 103.61,120.59 111.05,113.19C119.39,104.90 137.94,90.00 139.92,90.00C140.52,90.00 141.00,89.54 141.00,88.98C141.00,88.41 142.01,87.51 143.25,86.98C144.49,86.44 146.40,85.48 147.50,84.84C150.27,83.24 151.45,82.64 160.00,78.49C164.12,76.48 168.69,74.21 170.15,73.42C171.61,72.64 173.64,71.99 174.65,71.97C175.67,71.95 177.37,71.28 178.44,70.47C179.51,69.66 181.37,69.00 182.58,69.00C183.78,69.00 186.06,68.33 187.64,67.51C189.21,66.68 191.48,66.01 192.68,66.01C193.89,66.00 196.14,65.50 197.68,64.89C199.23,64.28 203.43,63.40 207.00,62.93C210.57,62.46 216.65,61.62 220.50,61.07C229.62,59.76 247.60,59.73 253.70,61.01C256.34,61.56 262.32,62.44 267.00,62.97C275.39,63.90 281.64,65.19 287.50,67.18C289.15,67.74 291.62,68.42 293.00,68.68C295.42,69.15 299.46,70.76 305.33,73.62C306.89,74.38 308.97,75.00 309.96,75.00C310.95,75.00 312.32,75.68 313.00,76.50C313.68,77.33 315.06,78.00 316.06,78.00C317.06,78.00 318.14,78.41 318.45,78.91C318.76,79.42 321.15,80.85 323.76,82.10C328.40,84.33 344.69,95.12 349.83,99.36C360.64,108.29 381.47,131.61 384.35,138.00C384.72,138.82 385.91,140.85 387.00,142.50C388.09,144.15 389.24,146.18 389.56,147.00C389.88,147.82 390.56,149.18 391.08,150.00C391.59,150.82 392.28,152.18 392.60,153.00C393.31,154.80 395.85,160.54 397.48,164.00C398.65,166.50 400.56,172.67 403.37,183.00C406.07,192.94 407.41,205.23 407.75,223.35C408.11,242.20 407.87,243.67 402.71,254.88C400.38,259.95 390.61,270.00 388.01,270.00C387.04,270.00 385.72,270.63 385.09,271.39C384.45,272.16 382.26,273.13 380.21,273.54C378.17,273.96 337.12,274.49 289.00,274.72C190.04,275.19 188.77,275.13 179.92,269.03C162.42,256.99 160.17,234.73 174.95,219.94C185.40,209.48 178.45,210.27 265.34,209.71C307.10,209.44 341.58,208.82 342.07,208.33C344.01,206.39 340.99,195.37 335.27,183.50C330.61,173.84 328.00,170.01 319.19,159.91C308.29,147.43 280.90,131.63 265.50,128.95C262.75,128.47 258.70,127.62 256.50,127.06C246.11,124.43 215.74,126.57 206.22,130.61C204.41,131.37 202.23,132.00 201.37,132.00C200.51,132.00 198.61,132.60 197.15,133.34C195.69,134.08 191.12,136.39 187.00,138.46C182.88,140.54 178.07,143.32 176.32,144.62C174.57,145.93 172.83,147.00 172.46,147.00C171.22,147.00 163.55,153.31 157.97,158.93C148.64,168.32 135.00,188.27 135.00,192.52C135.00,193.20 134.37,194.27 133.61,194.91C132.84,195.54 132.00,197.29 131.72,198.78C131.45,200.28 130.76,202.85 130.19,204.50C126.08,216.33 125.63,219.56 125.59,238.05C125.54,256.80 125.79,258.63 130.20,271.50C130.77,273.15 131.45,275.72 131.72,277.22C132.00,278.71 132.84,280.46 133.61,281.09C134.37,281.73 135.02,282.98 135.04,283.87C135.07,284.77 136.19,287.30 137.54,289.50C138.88,291.70 140.29,294.18 140.67,295.00C142.34,298.65 153.35,312.07 159.63,318.10C172.51,330.48 193.10,341.83 208.50,345.02C210.70,345.48 213.77,346.34 215.32,346.93C219.81,348.64 255.62,348.32 261.59,346.51C264.29,345.69 267.65,345.02 269.06,345.01C270.47,345.00 272.49,344.34 273.56,343.53C274.63,342.72 276.33,342.05 277.35,342.03C278.36,342.01 280.39,341.36 281.85,340.58C283.31,339.79 286.52,338.19 289.00,337.01C291.48,335.83 294.85,334.00 296.50,332.95C298.15,331.89 300.18,330.72 301.00,330.34C301.82,329.97 304.30,328.29 306.50,326.61C310.54,323.53 311.47,322.73 320.50,314.56C323.25,312.07 326.40,309.75 327.50,309.40C328.60,309.05 330.33,308.03 331.35,307.13C332.84,305.82 335.51,305.50 344.85,305.50C356.94,305.50 358.69,305.97 365.82,311.20C369.37,313.80 374.47,320.98 376.42,326.11C378.50,331.60 378.18,343.28 375.80,349.37C374.09,353.72 368.74,359.65 358.48,368.56C351.01,375.05 339.50,384.00 338.62,384.00C338.33,384.00 336.38,385.17 334.29,386.60C332.21,388.03 329.60,389.60 328.50,390.10C327.40,390.59 325.71,391.45 324.75,392.00C323.79,392.55 322.21,393.45 321.25,394.01C320.29,394.56 318.82,395.29 318.00,395.63C317.18,395.97 313.69,397.55 310.25,399.13C306.81,400.71 303.41,402.00 302.69,402.00C301.97,402.00 300.51,402.66 299.44,403.47C298.37,404.28 296.38,404.97 295.00,405.00C293.62,405.04 291.38,405.71 290.00,406.50C288.62,407.29 286.46,407.95 285.19,407.96C283.92,407.98 280.77,408.63 278.19,409.40C264.87,413.38 233.01,415.28 218.50,412.95z M1052.00,412.92C1049.53,412.47 1044.21,411.63 1040.18,411.06C1036.15,410.50 1032.35,409.71 1031.72,409.32C1031.09,408.94 1028.76,408.30 1026.54,407.92C1022.72,407.25 1021.19,406.78 1011.50,403.27C1004.64,400.78 994.75,396.53 992.00,394.88C991.17,394.39 989.94,393.77 989.25,393.49C986.01,392.21 985.31,391.85 982.50,390.00C980.85,388.91 978.83,387.71 978.00,387.33C974.70,385.81 957.03,371.86 949.60,364.91C938.89,354.90 924.08,336.98 920.65,329.89C920.28,329.12 919.11,327.15 918.05,325.50C916.16,322.55 913.32,316.90 910.25,310.00C909.40,308.07 908.09,305.31 907.35,303.85C906.61,302.39 906.00,300.33 906.00,299.29C906.00,298.24 905.34,296.51 904.53,295.44C903.72,294.37 903.05,292.46 903.03,291.18C903.01,289.91 902.50,287.94 901.90,286.81C901.29,285.67 900.42,282.44 899.96,279.62C899.50,276.80 898.57,272.25 897.90,269.50C897.10,266.21 896.67,255.29 896.66,237.50C896.64,214.73 896.90,209.79 898.30,206.00C899.22,203.53 899.99,200.15 900.02,198.50C900.05,196.85 900.71,194.38 901.50,193.00C902.29,191.62 902.96,189.15 903.00,187.50C903.03,185.85 903.72,183.63 904.53,182.56C905.34,181.49 906.00,179.84 906.00,178.89C906.00,177.94 906.64,175.89 907.42,174.33C908.20,172.77 911.02,167.01 913.67,161.51C925.53,136.97 943.70,115.11 966.56,97.86C972.03,93.74 977.17,90.05 978.00,89.67C978.83,89.29 980.85,88.11 982.50,87.05C984.15,86.00 987.52,84.17 990.00,82.99C992.48,81.82 995.17,80.44 996.00,79.92C996.83,79.41 998.17,78.72 999.00,78.40C999.83,78.07 1001.85,77.22 1003.50,76.50C1006.30,75.27 1009.42,74.10 1018.00,71.03C1019.92,70.35 1023.30,69.41 1025.50,68.96C1027.70,68.50 1031.30,67.68 1033.50,67.13C1045.00,64.24 1051.26,63.58 1070.11,63.25C1086.22,62.97 1092.18,63.23 1097.42,64.45C1101.11,65.30 1105.33,66.00 1106.81,66.00C1109.24,65.99 1113.91,67.24 1122.50,70.20C1124.15,70.76 1126.85,71.46 1128.50,71.75C1130.15,72.04 1132.39,72.89 1133.47,73.64C1134.56,74.39 1136.21,75.00 1137.14,75.00C1138.64,75.00 1142.31,76.56 1147.00,79.17C1147.83,79.64 1149.17,80.27 1150.00,80.58C1150.83,80.89 1152.17,81.56 1153.00,82.08C1153.83,82.59 1155.17,83.27 1156.00,83.58C1156.83,83.89 1158.17,84.56 1159.00,85.08C1159.83,85.59 1161.17,86.31 1162.00,86.67C1162.83,87.04 1165.14,88.61 1167.14,90.17C1169.15,91.72 1171.09,93.00 1171.45,93.00C1174.23,93.00 1196.51,113.31 1205.77,124.27C1213.97,133.99 1224.00,148.38 1224.00,150.43C1224.00,151.23 1224.43,152.15 1224.95,152.47C1226.24,153.27 1233.00,167.24 1233.00,169.11C1233.00,169.93 1233.48,171.08 1234.08,171.68C1234.67,172.27 1235.53,174.27 1235.99,176.13C1236.45,177.98 1237.28,180.85 1237.83,182.50C1241.07,192.18 1241.25,193.23 1239.86,194.11C1238.10,195.23 1176.92,195.24 1175.16,194.12C1174.42,193.65 1173.30,192.33 1172.66,191.19C1172.02,190.05 1170.50,187.30 1169.28,185.09C1162.73,173.20 1152.70,161.32 1142.44,153.29C1138.07,149.88 1134.13,147.07 1133.68,147.04C1133.23,147.02 1131.43,145.91 1129.68,144.57C1127.93,143.23 1125.37,141.66 1124.00,141.07C1122.62,140.48 1120.83,139.62 1120.00,139.16C1114.69,136.16 1112.41,135.35 1095.55,130.49C1088.39,128.42 1060.25,128.08 1053.00,129.98C1050.53,130.62 1046.61,131.49 1044.30,131.91C1041.99,132.33 1039.52,133.13 1038.80,133.70C1038.09,134.27 1036.38,134.98 1035.00,135.28C1030.93,136.18 1025.02,138.58 1023.77,139.83C1023.13,140.47 1021.82,141.00 1020.86,141.00C1019.90,141.00 1018.82,141.48 1018.46,142.06C1018.10,142.65 1016.84,143.54 1015.65,144.06C1004.58,148.87 986.47,166.55 977.28,181.52C974.59,185.90 969.00,197.70 968.97,199.06C968.95,199.85 968.28,201.37 967.47,202.44C966.66,203.51 966.00,205.25 966.00,206.31C966.00,207.37 965.35,210.32 964.55,212.87C960.75,225.04 960.76,251.15 964.56,264.59C965.35,267.39 966.01,270.54 966.03,271.59C966.05,272.64 966.72,274.37 967.53,275.44C968.34,276.51 969.00,278.05 969.00,278.87C969.00,280.20 974.33,291.50 977.31,296.48C990.75,318.92 1019.78,339.89 1044.50,345.02C1046.70,345.48 1049.85,346.39 1051.50,347.05C1055.56,348.68 1089.39,348.67 1093.50,347.04C1095.15,346.39 1098.30,345.48 1100.50,345.02C1106.18,343.84 1115.52,340.45 1120.00,337.94C1120.83,337.48 1123.53,336.10 1126.00,334.88C1128.47,333.66 1132.14,331.39 1134.14,329.83C1136.15,328.27 1138.01,327.00 1138.29,327.00C1139.24,327.00 1145.50,321.50 1152.52,314.50C1159.43,307.62 1164.66,300.57 1168.94,292.34C1170.14,290.04 1171.83,287.89 1172.72,287.56C1173.60,287.22 1188.68,286.99 1206.22,287.04C1241.93,287.16 1240.49,286.82 1237.62,294.32C1236.73,296.66 1236.00,299.30 1236.00,300.20C1236.00,301.10 1235.38,303.11 1234.62,304.67C1233.86,306.23 1232.47,309.30 1231.51,311.50C1230.56,313.70 1229.38,316.18 1228.88,317.00C1228.39,317.82 1227.77,319.06 1227.49,319.75C1226.21,322.99 1225.85,323.69 1224.00,326.50C1222.92,328.15 1221.57,330.40 1221.02,331.50C1217.27,338.90 1206.16,352.85 1195.89,363.06C1186.90,371.99 1168.26,387.00 1166.16,387.00C1165.66,387.00 1164.78,387.56 1164.21,388.25C1163.31,389.34 1153.45,394.61 1149.00,396.39C1148.17,396.72 1146.83,397.38 1146.00,397.85C1141.45,400.47 1138.02,402.00 1136.68,402.00C1135.84,402.00 1133.89,402.63 1132.33,403.40C1130.77,404.17 1126.80,405.55 1123.50,406.47C1120.20,407.39 1115.98,408.61 1114.13,409.18C1112.27,409.75 1107.77,410.61 1104.13,411.10C1100.48,411.58 1094.58,412.43 1091.00,412.97C1083.33,414.14 1058.44,414.11 1052.00,412.92z M550.00,406.37C540.73,404.57 532.40,402.24 528.67,400.40C527.11,399.63 525.03,399.00 524.04,399.00C523.05,399.00 521.68,398.32 521.00,397.50C520.32,396.68 518.97,396.00 518.00,396.00C517.03,396.00 515.68,395.32 515.00,394.50C514.32,393.68 512.97,393.00 512.00,393.00C511.03,393.00 509.68,392.32 509.00,391.50C508.32,390.68 507.33,390.00 506.80,390.00C504.99,390.00 493.48,380.68 484.68,372.10C477.17,364.78 473.33,359.76 464.24,345.48C463.55,344.39 462.72,342.82 462.40,342.00C462.07,341.18 461.22,339.15 460.50,337.50C459.77,335.85 458.53,332.70 457.73,330.50C453.47,318.73 453.55,319.06 451.10,305.50C450.36,301.45 450.01,267.39 450.01,200.46C450.00,90.07 449.58,96.95 456.92,86.76C461.97,79.73 467.47,76.31 476.61,74.50C483.46,73.15 494.34,74.28 497.08,76.64C497.95,77.39 499.16,78.00 499.78,78.00C502.02,78.00 511.75,88.65 513.85,93.39L516.00,98.25L516.04,195.88C516.08,278.28 516.31,294.12 517.53,297.50C518.32,299.70 518.98,302.39 518.98,303.48C519.01,306.83 524.75,317.24 529.64,322.84C534.61,328.52 544.05,336.00 546.26,336.00C547.00,336.00 548.14,336.54 548.80,337.20C552.64,341.04 572.13,343.17 579.96,340.61C582.66,339.72 585.75,339.00 586.82,339.00C587.88,339.00 589.32,338.32 590.00,337.50C590.68,336.68 591.90,336.00 592.70,336.00C594.70,336.00 605.12,327.85 609.17,323.11C613.29,318.29 617.48,310.56 618.32,306.23C619.62,299.57 624.06,292.11 629.76,287.03C632.86,284.26 636.00,282.00 636.73,282.00C637.47,282.00 639.19,281.26 640.57,280.36C644.11,278.04 660.89,278.04 664.43,280.36C665.81,281.26 667.53,282.00 668.27,282.00C670.53,282.00 680.40,291.56 682.34,295.64C683.35,297.76 684.81,300.77 685.59,302.33C686.36,303.89 687.00,306.16 687.00,307.37C687.00,311.57 694.19,323.13 700.15,328.52C705.88,333.70 711.03,336.69 720.00,340.07C725.71,342.23 743.51,342.45 750.00,340.45C753.02,339.52 756.17,338.38 757.00,337.91C757.83,337.45 760.37,336.10 762.66,334.91C771.86,330.10 781.52,317.90 787.09,304.00C788.26,301.11 788.59,283.24 789.01,201.00C789.48,110.41 789.68,101.07 791.24,96.66C793.28,90.92 798.91,82.96 802.75,80.39C810.90,74.93 812.11,74.59 823.00,74.60C832.08,74.61 834.08,74.92 837.80,76.93C843.89,80.22 849.17,85.61 852.57,92.00L855.50,97.50L855.50,203.00C855.50,301.33 855.38,308.76 853.75,312.37C852.79,314.50 852.00,317.30 852.00,318.59C852.00,320.84 850.39,325.29 847.40,331.33C846.63,332.89 846.00,334.97 846.00,335.96C846.00,336.95 845.33,338.32 844.50,339.00C843.67,339.68 843.00,341.06 843.00,342.06C843.00,343.06 842.52,344.18 841.94,344.54C841.35,344.90 840.46,346.16 839.94,347.35C834.28,360.36 810.04,384.93 796.00,391.87C791.37,394.16 789.29,395.26 786.25,397.01C785.29,397.56 783.83,398.26 783.00,398.57C782.17,398.88 780.15,399.72 778.50,400.44C774.75,402.08 766.51,404.51 757.94,406.48C750.20,408.27 721.44,408.59 715.99,406.95C714.07,406.37 710.48,405.52 708.00,405.05C703.48,404.20 699.09,402.80 693.50,400.41C685.31,396.90 680.96,394.74 680.45,393.91C680.14,393.41 679.28,393.00 678.54,393.00C676.43,393.00 666.69,386.13 660.10,380.00C659.22,379.18 657.06,377.20 655.31,375.62L652.12,372.74L646.31,378.18C639.04,384.98 633.64,389.16 628.50,391.94C626.30,393.13 623.83,394.48 623.00,394.94C621.60,395.72 618.86,396.94 610.75,400.38C594.27,407.36 568.33,409.92 550.00,406.37z" fill="#F5F3EE"/><path d="M1174.50,272.17C1172.85,271.99 1171.07,271.43 1170.55,270.92C1170.03,270.42 1168.20,270.00 1166.50,270.00C1164.19,270.00 1161.95,268.71 1157.70,264.92C1154.56,262.13 1152.00,259.03 1152.00,258.04C1152.00,257.05 1151.33,255.68 1150.50,255.00C1149.67,254.32 1149.00,252.74 1149.00,251.50C1149.00,250.26 1148.33,248.68 1147.50,248.00C1146.60,247.25 1146.00,245.06 1146.00,242.50C1146.00,239.94 1146.60,237.75 1147.50,237.00C1148.33,236.32 1149.00,234.29 1149.00,232.50C1149.00,230.71 1149.67,228.68 1150.50,228.00C1151.33,227.32 1152.00,225.95 1152.00,224.96C1152.00,222.22 1162.85,213.00 1166.08,213.00C1167.55,213.00 1169.32,212.32 1170.00,211.50C1171.07,210.22 1176.60,210.00 1208.50,210.00C1240.40,210.00 1245.93,210.22 1247.00,211.50C1247.68,212.32 1249.21,213.00 1250.40,213.00C1253.25,213.00 1266.00,225.80 1266.00,228.65C1266.00,229.81 1266.67,231.32 1267.50,232.00C1269.58,233.72 1269.60,247.82 1267.53,250.56C1266.72,251.63 1266.05,253.47 1266.03,254.66C1266.01,256.02 1263.39,259.23 1258.88,263.41C1253.21,268.65 1251.11,270.00 1248.58,270.00C1246.83,270.00 1244.96,270.44 1244.43,270.97C1243.52,271.88 1181.56,272.94 1174.50,272.17z M646.44,256.53C645.37,255.72 642.87,255.05 640.87,255.03C638.88,255.01 636.68,254.32 636.00,253.50C635.32,252.68 634.01,252.00 633.11,252.00C630.99,252.00 615.00,235.98 615.00,233.85C615.00,232.97 614.33,231.68 613.50,231.00C612.65,230.30 612.00,228.12 612.00,226.00C612.00,223.88 611.35,221.70 610.50,221.00C608.54,219.37 608.52,211.02 610.47,208.44C611.28,207.37 611.95,204.87 611.97,202.87C611.99,200.88 612.67,198.68 613.50,198.00C614.33,197.32 615.00,196.00 615.00,195.08C615.00,192.69 631.26,177.00 633.74,177.00C634.85,177.00 636.32,176.32 637.00,175.50C637.99,174.30 640.94,174.00 651.50,174.00C662.06,174.00 665.01,174.30 666.00,175.50C666.68,176.32 668.03,177.00 669.00,177.00C669.97,177.00 671.32,177.68 672.00,178.50C672.68,179.32 673.99,180.00 674.90,180.00C677.34,180.00 690.00,193.13 690.00,195.67C690.00,196.83 690.67,198.05 691.50,198.36C692.58,198.78 693.00,200.47 693.00,204.41C693.00,207.42 693.45,210.16 694.00,210.50C694.55,210.84 695.00,212.64 695.00,214.50C695.00,216.36 694.55,218.16 694.00,218.50C693.45,218.84 693.00,221.51 693.00,224.44C693.00,227.94 692.49,230.18 691.50,231.00C690.67,231.68 690.00,233.01 690.00,233.95C690.00,234.88 688.83,236.74 687.40,238.08C685.98,239.41 684.17,241.74 683.38,243.25C682.59,244.76 681.37,246.00 680.66,246.00C679.95,246.00 678.08,247.35 676.50,249.00C674.92,250.65 672.87,252.00 671.94,252.00C671.01,252.00 669.68,252.68 669.00,253.50C668.32,254.32 666.12,255.01 664.13,255.03C662.13,255.05 659.63,255.72 658.56,256.53C657.49,257.34 654.76,258.00 652.50,258.00C650.24,258.00 647.51,257.34 646.44,256.53z" fill="#FF5A1F"/></svg>
